User Type,Username,Date,Text
,leto02,2013-06-06T07:12Z,"General
Unique ID                        : 232506827319591761794266426924524049346 (0xAEEB2FA44F74F17690DC54C4CFA313C2)
Complete name                    : H:rangekinomult__Sintel.2010.4K.DMRip.x264.DD.DTSSintel.2010.4K.DMRip.x264.DD.DTS.SRT-MaLLIeHbKa.mkv
Format                           : Matroska
File size                        : 5.11 GiB
Duration                         : 14mn 48s
Overall bit rate                 : 49.5 Mbps
Movie name                       : Sintel (2010) DMRip by MaLLIeHbKa
Encoded date                     : UTC 2011-03-29 22:04:10
Writing application              : mkvmerge v4.6.0 ('Still Crazy After All These Years') built on Mar 10 2011 02:50:32
Writing library                  : libebml v1.2.0 + libmatroska v1.1.0
Cover                            : Yes

Video
ID                               : 1
Format                           : AVC
Format/Info                      : Advanced Video Codec
Format profile                   : High@L5.1
Format settings, CABAC           : Yes
Format settings, ReFrames        : 4 frames
Codec ID                         : V_MPEG4/ISO/AVC
Duration                         : 14mn 48s
Bit rate                         : 45.0 Mbps
Width                            : 4 096 pixels
Height                           : 1 744 pixels
Display aspect ratio             : 2.35:1
Frame rate                       : 24.000 fps
Color space                      : YUV
Chroma subsampling               : 4:2:0
Bit depth                        : 8 bits
Scan type                        : Progressive
Bits/(Pixel*Frame)               : 0.262
Stream size                      : 4.55 GiB (89%)
Title                            : 4096x1744p (2.35:1), 24 fps, x264 ~45 Mbps (EbP)
Writing library                  : x264 core 114 r1913 5fd3dce
Encoding settings                : cabac=1 / ref=4 / deblock=1:-3:-3 / analyse=0x3:0x113 / me=tesa / subme=10 / psy=1 / psy_rd=0.70:0.10 / mixed_ref=1 / me_range=16 / chroma_me=1 / trellis=2 / 8x8dct=1 / cqm=0 / deadzone=21,11 / fast_pskip=0 / chroma_qp_offset=-3 / threads=12 / sliced_threads=0 / nr=0 / decimate=0 / interlaced=0 / constrained_intra=0 / bframes=6 / b_pyramid=2 / b_adapt=2 / b_bias=0 / direct=3 / weightb=1 / open_gop=0 / weightp=2 / keyint=250 / keyint_min=24 / scenecut=40 / intra_refresh=0 / rc=2pass / mbtree=0 / bitrate=45000 / ratetol=1.0 / qcomp=0.60 / qpmin=0 / qpmax=69 / qpstep=4 / cplxblur=20.0 / qblur=0.5 / ip_ratio=1.40 / pb_ratio=1.30 / aq=1:1.00 / zones=6900,7199,b=2.0/8400,8415,b=2.0
Language                         : English

Audio #1
ID                               : 2
Format                           : AC-3
Format/Info                      : Audio Coding 3
Mode extension                   : CM (complete main)
Codec ID                         : A_AC3
Duration                         : 14mn 48s
Bit rate mode                    : Constant
Bit rate                         : 128 Kbps
Channel(s)                       : 2 channels
Channel positions                : Front: L R
Sampling rate                    : 48.0 KHz
Bit depth                        : 16 bits
Compression mode                 : Lossy
Stream size                      : 13.5 MiB (0%)
Title                            : RUS FanDub (StopGame) DD 2.0, 48 kHz, 128 kbps
Language                         : Russian

Audio #2
ID                               : 3
Format                           : DTS
Format/Info                      : Digital Theater Systems
Codec ID                         : A_DTS
Duration                         : 14mn 48s
Bit rate mode                    : Constant
Bit rate                         : 1 510 Kbps
Channel(s)                       : 6 channels
Channel positions                : Front: L C R, Side: L R, LFE
Sampling rate                    : 48.0 KHz
Bit depth                        : 24 bits
Compression mode                 : Lossy
Stream size                      : 160 MiB (3%)
Title                            : RUS DVO (UndergroundVoice) DTS 5.1, 48 kHz, 1536 kbps
Language                         : Russian

Audio #3
ID                               :"
